solid Mesh
  facet normal 0.000000 -1.000000 0.000000
    outer loop
      vertex -20.000000 -20.000000 0.000000
      vertex 20.000000 -20.000000 15.000000
      vertex -20.000000 -20.000000 15.000000
    endloop
  endfacet
  facet normal 0.000000 -1.000000 0.000000
    outer loop
      vertex -20.000000 -20.000000 0.000000
      vertex 20.000000 -20.000000 0.000000
      vertex 20.000000 -20.000000 15.000000
    endloop
  endfacet
  facet normal -1.000000 0.000000 0.000000
    outer loop
      vertex -20.000000 20.000000 0.000000
      vertex -20.000000 -20.000000 15.000000
      vertex -20.000000 20.000000 15.000000
    endloop
  endfacet
  facet normal -1.000000 0.000000 0.000000
    outer loop
      vertex -20.000000 20.000000 0.000000
      vertex -20.000000 -20.000000 0.000000
      vertex -20.000000 -20.000000 15.000000
    endloop
  endfacet
  facet normal 1.000000 0.000000 0.000000
    outer loop
      vertex 20.000000 -20.000000 0.000000
      vertex 20.000000 20.000000 15.000000
      vertex 20.000000 -20.000000 15.000000
    endloop
  endfacet
  facet normal 1.000000 0.000000 0.000000
    outer loop
      vertex 20.000000 -20.000000 0.000000
      vertex 20.000000 20.000000 0.000000
      vertex 20.000000 20.000000 15.000000
    endloop
  endfacet
  facet normal 0.000000 0.000000 -1.000000
    outer loop
      vertex -20.000000 -20.000000 0.000000
      vertex -20.000000 20.000000 0.000000
      vertex -6.495191 -3.750000 0.000000
    endloop
  endfacet
  facet normal 0.000000 0.000000 -1.000000
    outer loop
      vertex -20.000000 -20.000000 0.000000
      vertex 6.495191 -3.750000 0.000000
      vertex 20.000000 -20.000000 0.000000
    endloop
  endfacet
  facet normal 0.000000 -0.000000 -1.000000
    outer loop
      vertex -6.495191 -3.750000 0.000000
      vertex 6.495191 -3.750000 0.000000
      vertex -20.000000 -20.000000 0.000000
    endloop
  endfacet
  facet normal 0.000000 0.000000 -1.000000
    outer loop
      vertex -20.000000 20.000000 0.000000
      vertex 0.000000 7.500000 0.000000
      vertex -6.495191 -3.750000 0.000000
    endloop
  endfacet
  facet normal 0.000000 0.000000 -1.000000
    outer loop
      vertex 0.000000 7.500000 0.000000
      vertex 20.000000 20.000000 0.000000
      vertex 6.495191 -3.750000 0.000000
    endloop
  endfacet
  facet normal 0.000000 0.000000 -1.000000
    outer loop
      vertex 6.495191 -3.750000 0.000000
      vertex 20.000000 20.000000 0.000000
      vertex 20.000000 -20.000000 0.000000
    endloop
  endfacet
  facet normal 0.000000 0.000000 -1.000000
    outer loop
      vertex -20.000000 20.000000 0.000000
      vertex 20.000000 20.000000 0.000000
      vertex 0.000000 7.500000 0.000000
    endloop
  endfacet
  facet normal 0.000000 0.000000 1.000000
    outer loop
      vertex -20.000000 20.000000 15.000000
      vertex -20.000000 -20.000000 15.000000
      vertex -6.495191 -3.750000 15.000000
    endloop
  endfacet
  facet normal 0.000000 0.000000 1.000000
    outer loop
      vertex 6.495191 -3.750000 15.000000
      vertex -20.000000 -20.000000 15.000000
      vertex 20.000000 -20.000000 15.000000
    endloop
  endfacet
  facet normal 0.000000 0.000000 1.000000
    outer loop
      vertex 6.495191 -3.750000 15.000000
      vertex -6.495191 -3.750000 15.000000
      vertex -20.000000 -20.000000 15.000000
    endloop
  endfacet
  facet normal 0.000000 0.000000 1.000000
    outer loop
      vertex 0.000000 7.500000 15.000000
      vertex -20.000000 20.000000 15.000000
      vertex -6.495191 -3.750000 15.000000
    endloop
  endfacet
  facet normal 0.000000 0.000000 1.000000
    outer loop
      vertex 20.000000 20.000000 15.000000
      vertex 0.000000 7.500000 15.000000
      vertex 6.495191 -3.750000 15.000000
    endloop
  endfacet
  facet normal 0.000000 0.000000 1.000000
    outer loop
      vertex 20.000000 20.000000 15.000000
      vertex 6.495191 -3.750000 15.000000
      vertex 20.000000 -20.000000 15.000000
    endloop
  endfacet
  facet normal 0.000000 0.000000 1.000000
    outer loop
      vertex 20.000000 20.000000 15.000000
      vertex -20.000000 20.000000 15.000000
      vertex 0.000000 7.500000 15.000000
    endloop
  endfacet
  facet normal 0.000000 1.000000 -0.000000
    outer loop
      vertex 20.000000 20.000000 0.000000
      vertex -20.000000 20.000000 15.000000
      vertex 20.000000 20.000000 15.000000
    endloop
  endfacet
  facet normal 0.000000 1.000000 0.000000
    outer loop
      vertex 20.000000 20.000000 0.000000
      vertex -20.000000 20.000000 0.000000
      vertex -20.000000 20.000000 15.000000
    endloop
  endfacet
  facet normal 0.866025 -0.500000 0.000000
    outer loop
      vertex 0.000000 7.500000 15.000000
      vertex -6.495191 -3.750000 15.000000
      vertex 0.000000 7.500000 0.000000
    endloop
  endfacet
  facet normal 0.866025 -0.500000 0.000000
    outer loop
      vertex 0.000000 7.500000 0.000000
      vertex -6.495191 -3.750000 15.000000
      vertex -6.495191 -3.750000 0.000000
    endloop
  endfacet
  facet normal -0.000000 1.000000 0.000000
    outer loop
      vertex -6.495191 -3.750000 15.000000
      vertex 6.495191 -3.750000 15.000000
      vertex -6.495191 -3.750000 0.000000
    endloop
  endfacet
  facet normal 0.000000 1.000000 0.000000
    outer loop
      vertex -6.495191 -3.750000 0.000000
      vertex 6.495191 -3.750000 15.000000
      vertex 6.495191 -3.750000 0.000000
    endloop
  endfacet
  facet normal -0.866025 -0.500000 -0.000000
    outer loop
      vertex 6.495191 -3.750000 15.000000
      vertex 0.000000 7.500000 15.000000
      vertex 6.495191 -3.750000 0.000000
    endloop
  endfacet
  facet normal -0.866025 -0.500000 0.000000
    outer loop
      vertex 6.495191 -3.750000 0.000000
      vertex 0.000000 7.500000 15.000000
      vertex 0.000000 7.500000 0.000000
    endloop
  endfacet
endsolid Mesh
