solid box-with-hole_segments-10_vertices-124
  facet normal 0.000000 0.000000 -1.000000
    outer loop
      vertex 1.001606 -20.000000 0.000000
      vertex 6.067627 -4.408389 0.000000
      vertex 20.000000 -20.000000 0.000000
    endloop
  endfacet
  facet normal 0.000000 0.000000 -1.000000
    outer loop
      vertex 6.067627 -4.408389 0.000000
      vertex 7.500000 0.000000 0.000000
      vertex 20.000000 -20.000000 0.000000
    endloop
  endfacet
  facet normal 0.000000 0.000000 -1.000000
    outer loop
      vertex 8.385255 2.724534 0.000000
      vertex 9.817627 7.132924 0.000000
      vertex 20.000000 -20.000000 0.000000
    endloop
  endfacet
  facet normal 0.000000 0.000000 -1.000000
    outer loop
      vertex 7.500000 0.000000 0.000000
      vertex 8.385255 2.724534 0.000000
      vertex 20.000000 -20.000000 0.000000
    endloop
  endfacet
  facet normal -0.000000 0.000000 -1.000000
    outer loop
      vertex 20.000000 20.000000 0.000000
      vertex 13.567627 18.674237 0.000000
      vertex 13.998394 20.000000 0.000000
    endloop
  endfacet
  facet normal 0.000000 -0.000000 -1.000000
    outer loop
      vertex 13.567627 18.674237 0.000000
      vertex 20.000000 20.000000 0.000000
      vertex 9.817627 7.132924 0.000000
    endloop
  endfacet
  facet normal 0.000000 -0.000000 -1.000000
    outer loop
      vertex 20.000000 20.000000 0.000000
      vertex 20.000000 -20.000000 0.000000
      vertex 9.817627 7.132924 0.000000
    endloop
  endfacet
  facet normal 0.000000 0.000000 -1.000000
    outer loop
      vertex 6.067627 -4.408389 0.000000
      vertex 1.001606 -20.000000 0.000000
      vertex 2.317627 -7.132924 0.000000
    endloop
  endfacet
  facet normal 0.000000 0.000000 -1.000000
    outer loop
      vertex -15.392383 -20.000000 0.000000
      vertex 2.317627 -7.132924 0.000000
      vertex 1.001606 -20.000000 0.000000
    endloop
  endfacet
  facet normal -0.000000 0.000000 -1.000000
    outer loop
      vertex 2.317627 -7.132924 0.000000
      vertex -15.392383 -20.000000 0.000000
      vertex -2.317627 -7.132924 0.000000
    endloop
  endfacet
  facet normal 0.000000 0.000000 -1.000000
    outer loop
      vertex -20.000000 -20.000000 0.000000
      vertex -20.000000 -7.132924 0.000000
      vertex -15.392383 -20.000000 0.000000
    endloop
  endfacet
  facet normal 0.000000 0.000000 -1.000000
    outer loop
      vertex -20.000000 -7.132924 0.000000
      vertex -2.317627 -7.132924 0.000000
      vertex -15.392383 -20.000000 0.000000
    endloop
  endfacet
  facet normal 0.000000 -0.000000 -1.000000
    outer loop
      vertex -6.067627 -4.408389 0.000000
      vertex -2.317627 -7.132924 0.000000
      vertex -20.000000 -7.132924 0.000000
    endloop
  endfacet
  facet normal -0.000000 0.000000 -1.000000
    outer loop
      vertex -6.067627 -4.408389 0.000000
      vertex -20.000000 -7.132924 0.000000
      vertex -20.000000 5.714072 0.000000
    endloop
  endfacet
  facet normal 0.000000 0.000000 -1.000000
    outer loop
      vertex -6.067627 -4.408389 0.000000
      vertex -20.000000 5.714072 0.000000
      vertex -7.500000 0.000000 0.000000
    endloop
  endfacet
  facet normal 0.000000 0.000000 -1.000000
    outer loop
      vertex -20.000000 20.000000 0.000000
      vertex -13.998394 20.000000 0.000000
      vertex -20.000000 5.714072 0.000000
    endloop
  endfacet
  facet normal 0.000000 -0.000000 -1.000000
    outer loop
      vertex -13.998394 20.000000 0.000000
      vertex -7.500000 0.000000 0.000000
      vertex -20.000000 5.714072 0.000000
    endloop
  endfacet
  facet normal 0.000000 0.000000 -1.000000
    outer loop
      vertex -7.500000 0.000000 0.000000
      vertex -13.998394 20.000000 0.000000
      vertex -6.067627 4.408389 0.000000
    endloop
  endfacet
  facet normal -0.000000 0.000000 -1.000000
    outer loop
      vertex -1.001606 20.000000 0.000000
      vertex -6.067627 4.408389 0.000000
      vertex -13.998394 20.000000 0.000000
    endloop
  endfacet
  facet normal -0.000000 0.000000 -1.000000
    outer loop
      vertex 13.567627 18.674237 0.000000
      vertex -2.317627 7.132924 0.000000
      vertex -1.001606 20.000000 0.000000
    endloop
  endfacet
  facet normal 0.000000 0.000000 -1.000000
    outer loop
      vertex -6.067627 4.408389 0.000000
      vertex -1.001606 20.000000 0.000000
      vertex -2.317627 7.132924 0.000000
    endloop
  endfacet
  facet normal -0.000000 0.000000 -1.000000
    outer loop
      vertex 13.998394 20.000000 0.000000
      vertex 13.567627 18.674237 0.000000
      vertex -1.001606 20.000000 0.000000
    endloop
  endfacet
  facet normal 0.000000 0.000000 -1.000000
    outer loop
      vertex 13.567627 18.674237 0.000000
      vertex 9.817627 7.132924 0.000000
      vertex 2.317627 7.132924 0.000000
    endloop
  endfacet
  facet normal 0.000000 0.000000 -1.000000
    outer loop
      vertex 13.567627 18.674237 0.000000
      vertex 2.317627 7.132924 0.000000
      vertex -2.317627 7.132924 0.000000
    endloop
  endfacet
  facet normal 0.000000 0.000000 -1.000000
    outer loop
      vertex 2.317627 7.132924 0.000000
      vertex 9.817627 7.132924 0.000000
      vertex 6.067627 4.408389 0.000000
    endloop
  endfacet
  facet normal 0.000000 0.000000 -1.000000
    outer loop
      vertex 8.385255 2.724534 0.000000
      vertex 6.067627 4.408389 0.000000
      vertex 9.817627 7.132924 0.000000
    endloop
  endfacet
  facet normal 0.000000 0.000000 -1.000000
    outer loop
      vertex 6.067627 4.408389 0.000000
      vertex 8.385255 2.724534 0.000000
      vertex 7.500000 0.000000 0.000000
    endloop
  endfacet
  facet normal -0.000000 0.000000 1.000000
    outer loop
      vertex 13.998394 20.000000 5.000000
      vertex 13.567627 18.674237 5.000000
      vertex 20.000000 20.000000 5.000000
    endloop
  endfacet
  facet normal 0.000000 -0.000000 1.000000
    outer loop
      vertex 20.000000 -20.000000 5.000000
      vertex 20.000000 20.000000 5.000000
      vertex 9.817627 7.132924 5.000000
    endloop
  endfacet
  facet normal 0.000000 0.000000 1.000000
    outer loop
      vertex 1.001606 -20.000000 5.000000
      vertex 20.000000 -20.000000 5.000000
      vertex 6.067627 -4.408389 5.000000
    endloop
  endfacet
  facet normal -0.000000 0.000000 1.000000
    outer loop
      vertex 13.567627 18.674237 5.000000
      vertex 9.817627 7.132924 5.000000
      vertex 20.000000 20.000000 5.000000
    endloop
  endfacet
  facet normal -0.000000 0.000000 1.000000
    outer loop
      vertex 8.385255 2.724534 5.000000
      vertex 20.000000 -20.000000 5.000000
      vertex 9.817627 7.132924 5.000000
    endloop
  endfacet
  facet normal 0.000000 0.000000 1.000000
    outer loop
      vertex 8.385255 2.724534 5.000000
      vertex 7.500000 0.000000 5.000000
      vertex 20.000000 -20.000000 5.000000
    endloop
  endfacet
  facet normal 0.000000 0.000000 1.000000
    outer loop
      vertex 7.500000 0.000000 5.000000
      vertex 6.067627 -4.408389 5.000000
      vertex 20.000000 -20.000000 5.000000
    endloop
  endfacet
  facet normal 0.000000 0.000000 1.000000
    outer loop
      vertex 2.317627 -7.132924 5.000000
      vertex -15.392383 -20.000000 5.000000
      vertex 1.001606 -20.000000 5.000000
    endloop
  endfacet
  facet normal -0.000000 0.000000 1.000000
    outer loop
      vertex 2.317627 -7.132924 5.000000
      vertex 1.001606 -20.000000 5.000000
      vertex 6.067627 -4.408389 5.000000
    endloop
  endfacet
  facet normal 0.000000 0.000000 1.000000
    outer loop
      vertex -15.392383 -20.000000 5.000000
      vertex -20.000000 -7.132924 5.000000
      vertex -20.000000 -20.000000 5.000000
    endloop
  endfacet
  facet normal 0.000000 0.000000 1.000000
    outer loop
      vertex -2.317627 -7.132924 5.000000
      vertex -20.000000 -7.132924 5.000000
      vertex -15.392383 -20.000000 5.000000
    endloop
  endfacet
  facet normal -0.000000 0.000000 1.000000
    outer loop
      vertex -2.317627 -7.132924 5.000000
      vertex -15.392383 -20.000000 5.000000
      vertex 2.317627 -7.132924 5.000000
    endloop
  endfacet
  facet normal 0.000000 0.000000 1.000000
    outer loop
      vertex -20.000000 5.714072 5.000000
      vertex -20.000000 -7.132924 5.000000
      vertex -6.067627 -4.408389 5.000000
    endloop
  endfacet
  facet normal 0.000000 0.000000 1.000000
    outer loop
      vertex -2.317627 -7.132924 5.000000
      vertex -6.067627 -4.408389 5.000000
      vertex -20.000000 -7.132924 5.000000
    endloop
  endfacet
  facet normal 0.000000 0.000000 1.000000
    outer loop
      vertex -7.500000 0.000000 5.000000
      vertex -20.000000 5.714072 5.000000
      vertex -6.067627 -4.408389 5.000000
    endloop
  endfacet
  facet normal 0.000000 0.000000 1.000000
    outer loop
      vertex -13.998394 20.000000 5.000000
      vertex -20.000000 5.714072 5.000000
      vertex -7.500000 0.000000 5.000000
    endloop
  endfacet
  facet normal -0.000000 0.000000 1.000000
    outer loop
      vertex -20.000000 20.000000 5.000000
      vertex -20.000000 5.714072 5.000000
      vertex -13.998394 20.000000 5.000000
    endloop
  endfacet
  facet normal -0.000000 0.000000 1.000000
    outer loop
      vertex -13.998394 20.000000 5.000000
      vertex -6.067627 4.408389 5.000000
      vertex -1.001606 20.000000 5.000000
    endloop
  endfacet
  facet normal 0.000000 0.000000 1.000000
    outer loop
      vertex -6.067627 4.408389 5.000000
      vertex -13.998394 20.000000 5.000000
      vertex -7.500000 0.000000 5.000000
    endloop
  endfacet
  facet normal NaN NaN NaN
    outer loop
      vertex 13.567627 18.674237 5.000000
      vertex -2.317627 7.132924 5.000000
      vertex -6.067627 4.408389 5.000000
    endloop
  endfacet
  facet normal 0.000000 0.000000 1.000000
    outer loop
      vertex -2.317627 7.132924 5.000000
      vertex 13.567627 18.674237 5.000000
      vertex -1.001606 20.000000 5.000000
    endloop
  endfacet
  facet normal 0.000000 0.000000 1.000000
    outer loop
      vertex -6.067627 4.408389 5.000000
      vertex -2.317627 7.132924 5.000000
      vertex -1.001606 20.000000 5.000000
    endloop
  endfacet
  facet normal 0.000000 0.000000 1.000000
    outer loop
      vertex 13.998394 20.000000 5.000000
      vertex -1.001606 20.000000 5.000000
      vertex 13.567627 18.674237 5.000000
    endloop
  endfacet
  facet normal 0.000000 0.000000 1.000000
    outer loop
      vertex 13.567627 18.674237 5.000000
      vertex 2.317627 7.132924 5.000000
      vertex 9.817627 7.132924 5.000000
    endloop
  endfacet
  facet normal 0.000000 -0.000000 1.000000
    outer loop
      vertex 2.317627 7.132924 5.000000
      vertex 13.567627 18.674237 5.000000
      vertex -2.317627 7.132924 5.000000
    endloop
  endfacet
  facet normal 0.000000 0.000000 1.000000
    outer loop
      vertex 9.817627 7.132924 5.000000
      vertex 6.067627 4.408389 5.000000
      vertex 8.385255 2.724534 5.000000
    endloop
  endfacet
  facet normal 0.000000 -0.000000 1.000000
    outer loop
      vertex 6.067627 4.408389 5.000000
      vertex 9.817627 7.132924 5.000000
      vertex 2.317627 7.132924 5.000000
    endloop
  endfacet
  facet normal 0.000000 0.000000 1.000000
    outer loop
      vertex 6.067627 4.408389 5.000000
      vertex 7.500000 0.000000 5.000000
      vertex 8.385255 2.724534 5.000000
    endloop
  endfacet
  facet normal -0.951057 0.309017 0.000000
    outer loop
      vertex 7.500000 0.000000 0.000000
      vertex 6.067627 -4.408389 5.000000
      vertex 7.500000 0.000000 5.000000
    endloop
  endfacet
  facet normal -0.951057 0.309017 0.000000
    outer loop
      vertex 6.067627 -4.408389 0.000000
      vertex 6.067627 -4.408389 5.000000
      vertex 7.500000 0.000000 0.000000
    endloop
  endfacet
  facet normal -0.587785 0.809017 0.000000
    outer loop
      vertex 6.067627 -4.408389 0.000000
      vertex 2.317627 -7.132924 5.000000
      vertex 6.067627 -4.408389 5.000000
    endloop
  endfacet
  facet normal -0.587785 0.809017 0.000000
    outer loop
      vertex 2.317627 -7.132924 0.000000
      vertex 2.317627 -7.132924 5.000000
      vertex 6.067627 -4.408389 0.000000
    endloop
  endfacet
  facet normal -0.000000 1.000000 0.000000
    outer loop
      vertex 2.317627 -7.132924 0.000000
      vertex -2.317627 -7.132924 5.000000
      vertex 2.317627 -7.132924 5.000000
    endloop
  endfacet
  facet normal -0.000000 1.000000 0.000000
    outer loop
      vertex -2.317627 -7.132924 0.000000
      vertex -2.317627 -7.132924 5.000000
      vertex 2.317627 -7.132924 0.000000
    endloop
  endfacet
  facet normal 0.587785 0.809017 -0.000000
    outer loop
      vertex -2.317627 -7.132924 0.000000
      vertex -6.067627 -4.408389 5.000000
      vertex -2.317627 -7.132924 5.000000
    endloop
  endfacet
  facet normal 0.587785 0.809017 -0.000000
    outer loop
      vertex -6.067627 -4.408389 0.000000
      vertex -6.067627 -4.408389 5.000000
      vertex -2.317627 -7.132924 0.000000
    endloop
  endfacet
  facet normal 0.951057 0.309017 -0.000000
    outer loop
      vertex -6.067627 -4.408389 0.000000
      vertex -7.500000 -0.000000 5.000000
      vertex -6.067627 -4.408389 5.000000
    endloop
  endfacet
  facet normal 0.951057 0.309017 -0.000000
    outer loop
      vertex -7.500000 -0.000000 0.000000
      vertex -7.500000 -0.000000 5.000000
      vertex -6.067627 -4.408389 0.000000
    endloop
  endfacet
  facet normal 0.951057 -0.309017 0.000000
    outer loop
      vertex -7.500000 -0.000000 0.000000
      vertex -6.067627 4.408389 5.000000
      vertex -7.500000 -0.000000 5.000000
    endloop
  endfacet
  facet normal 0.951057 -0.309017 0.000000
    outer loop
      vertex -6.067627 4.408389 0.000000
      vertex -6.067627 4.408389 5.000000
      vertex -7.500000 -0.000000 0.000000
    endloop
  endfacet
  facet normal 0.587785 -0.809017 0.000000
    outer loop
      vertex -6.067627 4.408389 0.000000
      vertex -2.317627 7.132924 5.000000
      vertex -6.067627 4.408389 5.000000
    endloop
  endfacet
  facet normal 0.587785 -0.809017 0.000000
    outer loop
      vertex -2.317627 7.132924 0.000000
      vertex -2.317627 7.132924 5.000000
      vertex -6.067627 4.408389 0.000000
    endloop
  endfacet
  facet normal 0.000000 -1.000000 0.000000
    outer loop
      vertex -2.317627 7.132924 0.000000
      vertex 2.317627 7.132924 5.000000
      vertex -2.317627 7.132924 5.000000
    endloop
  endfacet
  facet normal 0.000000 -1.000000 0.000000
    outer loop
      vertex 2.317627 7.132924 0.000000
      vertex 2.317627 7.132924 5.000000
      vertex -2.317627 7.132924 0.000000
    endloop
  endfacet
  facet normal -0.587785 -0.809017 0.000000
    outer loop
      vertex 2.317627 7.132924 0.000000
      vertex 6.067627 4.408389 5.000000
      vertex 2.317627 7.132924 5.000000
    endloop
  endfacet
  facet normal -0.587785 -0.809017 0.000000
    outer loop
      vertex 6.067627 4.408389 0.000000
      vertex 6.067627 4.408389 5.000000
      vertex 2.317627 7.132924 0.000000
    endloop
  endfacet
  facet normal -0.951057 -0.309017 0.000000
    outer loop
      vertex 6.067627 4.408389 0.000000
      vertex 7.500000 0.000000 5.000000
      vertex 6.067627 4.408389 5.000000
    endloop
  endfacet
  facet normal -0.951057 -0.309017 0.000000
    outer loop
      vertex 7.500000 0.000000 0.000000
      vertex 7.500000 0.000000 5.000000
      vertex 6.067627 4.408389 0.000000
    endloop
  endfacet
  facet normal 0.000000 -1.000000 0.000000
    outer loop
      vertex -20.000000 -20.000000 0.000000
      vertex -15.392383 -20.000000 0.000000
      vertex -20.000000 -20.000000 5.000000
    endloop
  endfacet
  facet normal 0.000000 -1.000000 0.000000
    outer loop
      vertex -15.392383 -20.000000 0.000000
      vertex 1.001606 -20.000000 0.000000
      vertex -15.392383 -20.000000 5.000000
    endloop
  endfacet
  facet normal 0.000000 -1.000000 0.000000
    outer loop
      vertex 1.001606 -20.000000 0.000000
      vertex 20.000000 -20.000000 0.000000
      vertex 20.000000 -20.000000 5.000000
    endloop
  endfacet
  facet normal -0.000000 -1.000000 0.000000
    outer loop
      vertex 20.000000 -20.000000 5.000000
      vertex 1.001606 -20.000000 5.000000
      vertex 1.001606 -20.000000 0.000000
    endloop
  endfacet
  facet normal -0.000000 -1.000000 -0.000000
    outer loop
      vertex 1.001606 -20.000000 5.000000
      vertex -15.392383 -20.000000 5.000000
      vertex 1.001606 -20.000000 0.000000
    endloop
  endfacet
  facet normal -0.000000 -1.000000 0.000000
    outer loop
      vertex -15.392383 -20.000000 5.000000
      vertex -20.000000 -20.000000 5.000000
      vertex -15.392383 -20.000000 0.000000
    endloop
  endfacet
  facet normal 0.000000 1.000000 0.000000
    outer loop
      vertex -20.000000 20.000000 0.000000
      vertex -20.000000 20.000000 5.000000
      vertex -13.998394 20.000000 0.000000
    endloop
  endfacet
  facet normal 0.000000 1.000000 0.000000
    outer loop
      vertex -13.998394 20.000000 5.000000
      vertex -1.001606 20.000000 0.000000
      vertex -13.998394 20.000000 0.000000
    endloop
  endfacet
  facet normal 0.000000 1.000000 0.000000
    outer loop
      vertex 20.000000 20.000000 0.000000
      vertex 13.998394 20.000000 0.000000
      vertex 13.998394 20.000000 5.000000
    endloop
  endfacet
  facet normal -0.000000 1.000000 0.000000
    outer loop
      vertex -1.001606 20.000000 5.000000
      vertex 13.998394 20.000000 5.000000
      vertex 13.998394 20.000000 0.000000
    endloop
  endfacet
  facet normal 0.000000 1.000000 0.000000
    outer loop
      vertex 20.000000 20.000000 5.000000
      vertex 20.000000 20.000000 0.000000
      vertex 13.998394 20.000000 5.000000
    endloop
  endfacet
  facet normal 0.000000 1.000000 0.000000
    outer loop
      vertex -1.001606 20.000000 5.000000
      vertex 13.998394 20.000000 0.000000
      vertex -1.001606 20.000000 0.000000
    endloop
  endfacet
  facet normal 0.000000 1.000000 0.000000
    outer loop
      vertex -1.001606 20.000000 5.000000
      vertex -1.001606 20.000000 0.000000
      vertex -13.998394 20.000000 5.000000
    endloop
  endfacet
  facet normal 0.000000 1.000000 0.000000
    outer loop
      vertex -13.998394 20.000000 5.000000
      vertex -13.998394 20.000000 0.000000
      vertex -20.000000 20.000000 5.000000
    endloop
  endfacet
  facet normal -1.000000 -0.000000 0.000000
    outer loop
      vertex -20.000000 -7.132924 5.000000
      vertex -20.000000 -20.000000 0.000000
      vertex -20.000000 -20.000000 5.000000
    endloop
  endfacet
  facet normal -1.000000 0.000000 0.000000
    outer loop
      vertex -20.000000 -7.132924 5.000000
      vertex -20.000000 5.714072 0.000000
      vertex -20.000000 -7.132924 0.000000
    endloop
  endfacet
  facet normal -1.000000 0.000000 0.000000
    outer loop
      vertex -20.000000 5.714072 5.000000
      vertex -20.000000 20.000000 0.000000
      vertex -20.000000 5.714072 0.000000
    endloop
  endfacet
  facet normal -1.000000 -0.000000 -0.000000
    outer loop
      vertex -20.000000 20.000000 5.000000
      vertex -20.000000 20.000000 0.000000
      vertex -20.000000 5.714072 5.000000
    endloop
  endfacet
  facet normal -1.000000 -0.000000 -0.000000
    outer loop
      vertex -20.000000 5.714072 5.000000
      vertex -20.000000 5.714072 0.000000
      vertex -20.000000 -7.132924 5.000000
    endloop
  endfacet
  facet normal -1.000000 0.000000 -0.000000
    outer loop
      vertex -20.000000 -7.132924 5.000000
      vertex -20.000000 -7.132924 0.000000
      vertex -20.000000 -20.000000 0.000000
    endloop
  endfacet
  facet normal 1.000000 0.000000 0.000000
    outer loop
      vertex 20.000000 20.000000 5.000000
      vertex 20.000000 -20.000000 0.000000
      vertex 20.000000 20.000000 0.000000
    endloop
  endfacet
  facet normal 1.000000 -0.000000 0.000000
    outer loop
      vertex 20.000000 -20.000000 5.000000
      vertex 20.000000 -20.000000 0.000000
      vertex 20.000000 20.000000 5.000000
    endloop
  endfacet
endsolid box-with-hole_segments-10_vertices-124
