solid box-with-hole_segments-8_vertices-104
  facet normal NaN NaN NaN
    outer loop
      vertex 7.500000 0.000000 0.000000
      vertex 5.303301 -5.303301 0.000000
      vertex 9.053301 3.750000 0.000000
    endloop
  endfacet
  facet normal 0.000000 0.000000 -1.000000
    outer loop
      vertex 7.500000 0.000000 0.000000
      vertex 9.053301 3.750000 0.000000
      vertex 20.000000 -20.000000 0.000000
    endloop
  endfacet
  facet normal 0.000000 0.000000 -1.000000
    outer loop
      vertex 9.053301 3.750000 0.000000
      vertex 12.803301 12.803301 0.000000
      vertex 20.000000 -20.000000 0.000000
    endloop
  endfacet
  facet normal 0.000000 0.000000 -1.000000
    outer loop
      vertex 5.303301 -5.303301 0.000000
      vertex 7.500000 0.000000 0.000000
      vertex 20.000000 -20.000000 0.000000
    endloop
  endfacet
  facet normal 0.000000 -0.000000 -1.000000
    outer loop
      vertex 15.784271 20.000000 0.000000
      vertex 20.000000 20.000000 0.000000
      vertex 12.803301 12.803301 0.000000
    endloop
  endfacet
  facet normal 0.000000 0.000000 -1.000000
    outer loop
      vertex -0.784271 -20.000000 0.000000
      vertex 5.303301 -5.303301 0.000000
      vertex 20.000000 -20.000000 0.000000
    endloop
  endfacet
  facet normal 0.000000 -0.000000 -1.000000
    outer loop
      vertex 20.000000 20.000000 0.000000
      vertex 20.000000 -20.000000 0.000000
      vertex 12.803301 12.803301 0.000000
    endloop
  endfacet
  facet normal 0.000000 0.000000 -1.000000
    outer loop
      vertex 0.000000 -7.500000 0.000000
      vertex -0.784271 -20.000000 0.000000
      vertex -20.000000 -15.784271 0.000000
    endloop
  endfacet
  facet normal 0.000000 0.000000 -1.000000
    outer loop
      vertex -20.000000 -20.000000 0.000000
      vertex -20.000000 -15.784271 0.000000
      vertex -0.784271 -20.000000 0.000000
    endloop
  endfacet
  facet normal 0.000000 -0.000000 -1.000000
    outer loop
      vertex 0.000000 -7.500000 0.000000
      vertex 5.303301 -5.303301 0.000000
      vertex -0.784271 -20.000000 0.000000
    endloop
  endfacet
  facet normal -0.000000 0.000000 -1.000000
    outer loop
      vertex 0.000000 -7.500000 0.000000
      vertex -20.000000 -15.784271 0.000000
      vertex -5.303301 -5.303301 0.000000
    endloop
  endfacet
  facet normal 0.000000 0.000000 -1.000000
    outer loop
      vertex -20.000000 0.784271 0.000000
      vertex -5.303301 -5.303301 0.000000
      vertex -20.000000 -15.784271 0.000000
    endloop
  endfacet
  facet normal 0.000000 0.000000 -1.000000
    outer loop
      vertex -7.500000 0.000000 0.000000
      vertex -20.000000 0.784271 0.000000
      vertex -15.784271 20.000000 0.000000
    endloop
  endfacet
  facet normal 0.000000 0.000000 -1.000000
    outer loop
      vertex -20.000000 20.000000 0.000000
      vertex -15.784271 20.000000 0.000000
      vertex -20.000000 0.784271 0.000000
    endloop
  endfacet
  facet normal -0.000000 -0.000000 -1.000000
    outer loop
      vertex -7.500000 0.000000 0.000000
      vertex -5.303301 -5.303301 0.000000
      vertex -20.000000 0.784271 0.000000
    endloop
  endfacet
  facet normal 0.000000 0.000000 -1.000000
    outer loop
      vertex -7.500000 0.000000 0.000000
      vertex -15.784271 20.000000 0.000000
      vertex -5.303301 5.303301 0.000000
    endloop
  endfacet
  facet normal -0.000000 0.000000 -1.000000
    outer loop
      vertex 0.784271 20.000000 0.000000
      vertex -5.303301 5.303301 0.000000
      vertex -15.784271 20.000000 0.000000
    endloop
  endfacet
  facet normal -0.000000 0.000000 -1.000000
    outer loop
      vertex 12.803301 12.803301 0.000000
      vertex -0.000000 7.500000 0.000000
      vertex 0.784271 20.000000 0.000000
    endloop
  endfacet
  facet normal 0.000000 0.000000 -1.000000
    outer loop
      vertex -5.303301 5.303301 0.000000
      vertex 0.784271 20.000000 0.000000
      vertex -0.000000 7.500000 0.000000
    endloop
  endfacet
  facet normal -0.000000 0.000000 -1.000000
    outer loop
      vertex 15.784271 20.000000 0.000000
      vertex 12.803301 12.803301 0.000000
      vertex 0.784271 20.000000 0.000000
    endloop
  endfacet
  facet normal 0.000000 0.000000 -1.000000
    outer loop
      vertex 5.303301 5.303301 0.000000
      vertex -0.000000 7.500000 0.000000
      vertex 12.803301 12.803301 0.000000
    endloop
  endfacet
  facet normal 0.000000 0.000000 -1.000000
    outer loop
      vertex 5.303301 5.303301 0.000000
      vertex 12.803301 12.803301 0.000000
      vertex 9.053301 3.750000 0.000000
    endloop
  endfacet
  facet normal 0.000000 0.000000 -1.000000
    outer loop
      vertex 5.303301 5.303301 0.000000
      vertex 9.053301 3.750000 0.000000
      vertex 7.500000 0.000000 0.000000
    endloop
  endfacet
  facet normal -0.000000 0.000000 1.000000
    outer loop
      vertex 15.784271 20.000000 5.000000
      vertex 12.803301 12.803301 5.000000
      vertex 20.000000 20.000000 5.000000
    endloop
  endfacet
  facet normal 0.000000 -0.000000 1.000000
    outer loop
      vertex 20.000000 -20.000000 5.000000
      vertex 20.000000 20.000000 5.000000
      vertex 12.803301 12.803301 5.000000
    endloop
  endfacet
  facet normal 0.000000 0.000000 1.000000
    outer loop
      vertex 12.803301 12.803301 5.000000
      vertex 9.053301 3.750000 5.000000
      vertex 20.000000 -20.000000 5.000000
    endloop
  endfacet
  facet normal -0.000000 0.000000 1.000000
    outer loop
      vertex 5.303301 -5.303301 5.000000
      vertex 20.000000 -20.000000 5.000000
      vertex 7.500000 0.000000 5.000000
    endloop
  endfacet
  facet normal 0.000000 0.000000 1.000000
    outer loop
      vertex 9.053301 3.750000 5.000000
      vertex 7.500000 0.000000 5.000000
      vertex 20.000000 -20.000000 5.000000
    endloop
  endfacet
  facet normal 0.000000 0.000000 1.000000
    outer loop
      vertex 5.303301 -5.303301 5.000000
      vertex -0.784271 -20.000000 5.000000
      vertex 20.000000 -20.000000 5.000000
    endloop
  endfacet
  facet normal 0.000000 0.000000 1.000000
    outer loop
      vertex -0.784271 -20.000000 5.000000
      vertex -20.000000 -15.784271 5.000000
      vertex -20.000000 -20.000000 5.000000
    endloop
  endfacet
  facet normal -0.000000 0.000000 1.000000
    outer loop
      vertex -20.000000 -15.784271 5.000000
      vertex -0.784271 -20.000000 5.000000
      vertex -0.000000 -7.500000 5.000000
    endloop
  endfacet
  facet normal 0.000000 0.000000 1.000000
    outer loop
      vertex 5.303301 -5.303301 5.000000
      vertex -0.000000 -7.500000 5.000000
      vertex -0.784271 -20.000000 5.000000
    endloop
  endfacet
  facet normal 0.000000 0.000000 1.000000
    outer loop
      vertex -5.303301 -5.303301 5.000000
      vertex -20.000000 0.784271 5.000000
      vertex -20.000000 -15.784271 5.000000
    endloop
  endfacet
  facet normal 0.000000 0.000000 1.000000
    outer loop
      vertex -5.303301 -5.303301 5.000000
      vertex -20.000000 -15.784271 5.000000
      vertex -0.000000 -7.500000 5.000000
    endloop
  endfacet
  facet normal 0.000000 0.000000 1.000000
    outer loop
      vertex -7.500000 0.000000 5.000000
      vertex -20.000000 0.784271 5.000000
      vertex -5.303301 -5.303301 5.000000
    endloop
  endfacet
  facet normal 0.000000 0.000000 1.000000
    outer loop
      vertex -15.784271 20.000000 5.000000
      vertex -20.000000 0.784271 5.000000
      vertex -7.500000 0.000000 5.000000
    endloop
  endfacet
  facet normal -0.000000 0.000000 1.000000
    outer loop
      vertex -20.000000 20.000000 5.000000
      vertex -20.000000 0.784271 5.000000
      vertex -15.784271 20.000000 5.000000
    endloop
  endfacet
  facet normal -0.000000 0.000000 1.000000
    outer loop
      vertex -15.784271 20.000000 5.000000
      vertex -5.303301 5.303301 5.000000
      vertex 0.784271 20.000000 5.000000
    endloop
  endfacet
  facet normal 0.000000 0.000000 1.000000
    outer loop
      vertex -5.303301 5.303301 5.000000
      vertex -15.784271 20.000000 5.000000
      vertex -7.500000 0.000000 5.000000
    endloop
  endfacet
  facet normal 0.000000 0.000000 1.000000
    outer loop
      vertex -5.303301 5.303301 5.000000
      vertex -0.000000 7.500000 5.000000
      vertex 0.784271 20.000000 5.000000
    endloop
  endfacet
  facet normal 0.000000 0.000000 1.000000
    outer loop
      vertex -0.000000 7.500000 5.000000
      vertex 12.803301 12.803301 5.000000
      vertex 0.784271 20.000000 5.000000
    endloop
  endfacet
  facet normal 0.000000 0.000000 1.000000
    outer loop
      vertex 15.784271 20.000000 5.000000
      vertex 0.784271 20.000000 5.000000
      vertex 12.803301 12.803301 5.000000
    endloop
  endfacet
  facet normal -0.000000 0.000000 1.000000
    outer loop
      vertex -0.000000 7.500000 5.000000
      vertex 5.303301 5.303301 5.000000
      vertex 12.803301 12.803301 5.000000
    endloop
  endfacet
  facet normal 0.000000 -0.000000 1.000000
    outer loop
      vertex 9.053301 3.750000 5.000000
      vertex 12.803301 12.803301 5.000000
      vertex 5.303301 5.303301 5.000000
    endloop
  endfacet
  facet normal 0.000000 0.000000 1.000000
    outer loop
      vertex 5.303301 5.303301 5.000000
      vertex 7.500000 0.000000 5.000000
      vertex 9.053301 3.750000 5.000000
    endloop
  endfacet
  facet normal -0.923880 0.382683 0.000000
    outer loop
      vertex 7.500000 0.000000 0.000000
      vertex 5.303301 -5.303301 5.000000
      vertex 7.500000 0.000000 5.000000
    endloop
  endfacet
  facet normal -0.923880 0.382683 0.000000
    outer loop
      vertex 5.303301 -5.303301 0.000000
      vertex 5.303301 -5.303301 5.000000
      vertex 7.500000 0.000000 0.000000
    endloop
  endfacet
  facet normal -0.382683 0.923880 0.000000
    outer loop
      vertex 5.303301 -5.303301 0.000000
      vertex 0.000000 -7.500000 5.000000
      vertex 5.303301 -5.303301 5.000000
    endloop
  endfacet
  facet normal -0.382683 0.923880 0.000000
    outer loop
      vertex 0.000000 -7.500000 0.000000
      vertex 0.000000 -7.500000 5.000000
      vertex 5.303301 -5.303301 0.000000
    endloop
  endfacet
  facet normal 0.382683 0.923880 -0.000000
    outer loop
      vertex 0.000000 -7.500000 0.000000
      vertex -5.303301 -5.303301 5.000000
      vertex 0.000000 -7.500000 5.000000
    endloop
  endfacet
  facet normal 0.382683 0.923880 -0.000000
    outer loop
      vertex -5.303301 -5.303301 0.000000
      vertex -5.303301 -5.303301 5.000000
      vertex 0.000000 -7.500000 0.000000
    endloop
  endfacet
  facet normal 0.923880 0.382683 -0.000000
    outer loop
      vertex -5.303301 -5.303301 0.000000
      vertex -7.500000 -0.000000 5.000000
      vertex -5.303301 -5.303301 5.000000
    endloop
  endfacet
  facet normal 0.923880 0.382683 -0.000000
    outer loop
      vertex -7.500000 -0.000000 0.000000
      vertex -7.500000 -0.000000 5.000000
      vertex -5.303301 -5.303301 0.000000
    endloop
  endfacet
  facet normal 0.923880 -0.382683 0.000000
    outer loop
      vertex -7.500000 -0.000000 0.000000
      vertex -5.303301 5.303301 5.000000
      vertex -7.500000 -0.000000 5.000000
    endloop
  endfacet
  facet normal 0.923880 -0.382683 0.000000
    outer loop
      vertex -5.303301 5.303301 0.000000
      vertex -5.303301 5.303301 5.000000
      vertex -7.500000 -0.000000 0.000000
    endloop
  endfacet
  facet normal 0.382683 -0.923880 0.000000
    outer loop
      vertex -5.303301 5.303301 0.000000
      vertex -0.000000 7.500000 5.000000
      vertex -5.303301 5.303301 5.000000
    endloop
  endfacet
  facet normal 0.382683 -0.923880 0.000000
    outer loop
      vertex -0.000000 7.500000 0.000000
      vertex -0.000000 7.500000 5.000000
      vertex -5.303301 5.303301 0.000000
    endloop
  endfacet
  facet normal -0.382683 -0.923880 0.000000
    outer loop
      vertex -0.000000 7.500000 0.000000
      vertex 5.303301 5.303301 5.000000
      vertex -0.000000 7.500000 5.000000
    endloop
  endfacet
  facet normal -0.382683 -0.923880 0.000000
    outer loop
      vertex 5.303301 5.303301 0.000000
      vertex 5.303301 5.303301 5.000000
      vertex -0.000000 7.500000 0.000000
    endloop
  endfacet
  facet normal -0.923880 -0.382683 0.000000
    outer loop
      vertex 5.303301 5.303301 0.000000
      vertex 7.500000 0.000000 5.000000
      vertex 5.303301 5.303301 5.000000
    endloop
  endfacet
  facet normal -0.923880 -0.382683 0.000000
    outer loop
      vertex 7.500000 0.000000 0.000000
      vertex 7.500000 0.000000 5.000000
      vertex 5.303301 5.303301 0.000000
    endloop
  endfacet
  facet normal 0.000000 -1.000000 0.000000
    outer loop
      vertex -20.000000 -20.000000 0.000000
      vertex -0.784271 -20.000000 0.000000
      vertex -0.784271 -20.000000 5.000000
    endloop
  endfacet
  facet normal 0.000000 -1.000000 0.000000
    outer loop
      vertex -0.784271 -20.000000 0.000000
      vertex 20.000000 -20.000000 0.000000
      vertex 20.000000 -20.000000 5.000000
    endloop
  endfacet
  facet normal -0.000000 -1.000000 0.000000
    outer loop
      vertex 20.000000 -20.000000 5.000000
      vertex -0.784271 -20.000000 5.000000
      vertex -0.784271 -20.000000 0.000000
    endloop
  endfacet
  facet normal 0.000000 -1.000000 0.000000
    outer loop
      vertex -20.000000 -20.000000 5.000000
      vertex -20.000000 -20.000000 0.000000
      vertex -0.784271 -20.000000 5.000000
    endloop
  endfacet
  facet normal 0.000000 1.000000 0.000000
    outer loop
      vertex -15.784271 20.000000 5.000000
      vertex -20.000000 20.000000 0.000000
      vertex -20.000000 20.000000 5.000000
    endloop
  endfacet
  facet normal 0.000000 1.000000 -0.000000
    outer loop
      vertex 0.784271 20.000000 0.000000
      vertex -15.784271 20.000000 0.000000
      vertex 0.784271 20.000000 5.000000
    endloop
  endfacet
  facet normal 0.000000 1.000000 0.000000
    outer loop
      vertex 20.000000 20.000000 0.000000
      vertex 15.784271 20.000000 0.000000
      vertex 15.784271 20.000000 5.000000
    endloop
  endfacet
  facet normal -0.000000 1.000000 0.000000
    outer loop
      vertex 0.784271 20.000000 5.000000
      vertex 15.784271 20.000000 5.000000
      vertex 15.784271 20.000000 0.000000
    endloop
  endfacet
  facet normal 0.000000 1.000000 0.000000
    outer loop
      vertex 20.000000 20.000000 5.000000
      vertex 20.000000 20.000000 0.000000
      vertex 15.784271 20.000000 5.000000
    endloop
  endfacet
  facet normal 0.000000 1.000000 0.000000
    outer loop
      vertex 0.784271 20.000000 5.000000
      vertex 15.784271 20.000000 0.000000
      vertex 0.784271 20.000000 0.000000
    endloop
  endfacet
  facet normal -0.000000 1.000000 0.000000
    outer loop
      vertex -15.784271 20.000000 5.000000
      vertex 0.784271 20.000000 5.000000
      vertex -15.784271 20.000000 0.000000
    endloop
  endfacet
  facet normal 0.000000 1.000000 0.000000
    outer loop
      vertex -15.784271 20.000000 5.000000
      vertex -15.784271 20.000000 0.000000
      vertex -20.000000 20.000000 0.000000
    endloop
  endfacet
  facet normal -1.000000 -0.000000 0.000000
    outer loop
      vertex -20.000000 -15.784271 5.000000
      vertex -20.000000 -20.000000 0.000000
      vertex -20.000000 -20.000000 5.000000
    endloop
  endfacet
  facet normal -1.000000 0.000000 0.000000
    outer loop
      vertex -20.000000 -15.784271 5.000000
      vertex -20.000000 0.784271 0.000000
      vertex -20.000000 -15.784271 0.000000
    endloop
  endfacet
  facet normal -1.000000 0.000000 0.000000
    outer loop
      vertex -20.000000 0.784271 5.000000
      vertex -20.000000 20.000000 0.000000
      vertex -20.000000 0.784271 0.000000
    endloop
  endfacet
  facet normal -1.000000 -0.000000 -0.000000
    outer loop
      vertex -20.000000 20.000000 5.000000
      vertex -20.000000 20.000000 0.000000
      vertex -20.000000 0.784271 5.000000
    endloop
  endfacet
  facet normal -1.000000 -0.000000 -0.000000
    outer loop
      vertex -20.000000 0.784271 5.000000
      vertex -20.000000 0.784271 0.000000
      vertex -20.000000 -15.784271 5.000000
    endloop
  endfacet
  facet normal -1.000000 0.000000 -0.000000
    outer loop
      vertex -20.000000 -15.784271 5.000000
      vertex -20.000000 -15.784271 0.000000
      vertex -20.000000 -20.000000 0.000000
    endloop
  endfacet
  facet normal 1.000000 0.000000 0.000000
    outer loop
      vertex 20.000000 20.000000 5.000000
      vertex 20.000000 -20.000000 0.000000
      vertex 20.000000 20.000000 0.000000
    endloop
  endfacet
  facet normal 1.000000 -0.000000 0.000000
    outer loop
      vertex 20.000000 -20.000000 5.000000
      vertex 20.000000 -20.000000 0.000000
      vertex 20.000000 20.000000 5.000000
    endloop
  endfacet
endsolid box-with-hole_segments-8_vertices-104
