solid box-with-tri-hole
  facet normal 0.000000 0.000000 -1.000000
    outer loop
      vertex -20.000000 -20.000000 0.000000
      vertex -20.000000 -15.877132 0.000000
      vertex 20.000000 -20.000000 0.000000
    endloop
  endfacet
  facet normal 0.000000 0.000000 -1.000000
    outer loop
      vertex 20.000000 7.216878 0.000000
      vertex 20.000000 -20.000000 0.000000
      vertex -20.000000 -15.877132 0.000000
    endloop
  endfacet
  facet normal -0.000000 0.000000 -1.000000
    outer loop
      vertex -20.000000 20.000000 0.000000
      vertex -3.750000 -6.495191 0.000000
      vertex -20.000000 -15.877132 0.000000
    endloop
  endfacet
  facet normal -0.000000 0.000000 -1.000000
    outer loop
      vertex -3.750000 20.000000 0.000000
      vertex -3.750000 -6.495191 0.000000
      vertex -20.000000 20.000000 0.000000
    endloop
  endfacet
  facet normal -0.000000 0.000000 -1.000000
    outer loop
      vertex -3.750000 20.000000 0.000000
      vertex 7.500000 0.000000 0.000000
      vertex -3.750000 6.495191 0.000000
    endloop
  endfacet
  facet normal -0.000000 0.000000 -1.000000
    outer loop
      vertex 7.500000 0.000000 0.000000
      vertex -3.750000 20.000000 0.000000
      vertex 20.000000 7.216878 0.000000
    endloop
  endfacet
  facet normal -0.000000 0.000000 -1.000000
    outer loop
      vertex 20.000000 20.000000 0.000000
      vertex 20.000000 7.216878 0.000000
      vertex -3.750000 20.000000 0.000000
    endloop
  endfacet
  facet normal 0.000000 0.000000 1.000000
    outer loop
      vertex 20.000000 -20.000000 15.000000
      vertex -20.000000 -15.877132 15.000000
      vertex -20.000000 -20.000000 15.000000
    endloop
  endfacet
  facet normal 0.000000 0.000000 1.000000
    outer loop
      vertex 20.000000 7.216878 15.000000
      vertex -20.000000 -15.877132 15.000000
      vertex 20.000000 -20.000000 15.000000
    endloop
  endfacet
  facet normal 0.000000 0.000000 1.000000
    outer loop
      vertex -20.000000 -15.877132 15.000000
      vertex -3.750000 -6.495191 15.000000
      vertex -20.000000 20.000000 15.000000
    endloop
  endfacet
  facet normal 0.000000 0.000000 1.000000
    outer loop
      vertex -3.750000 20.000000 15.000000
      vertex -20.000000 20.000000 15.000000
      vertex -3.750000 -6.495191 15.000000
    endloop
  endfacet
  facet normal 0.000000 -0.000000 1.000000
    outer loop
      vertex -3.750000 6.495191 15.000000
      vertex 7.500000 0.000000 15.000000
      vertex -3.750000 20.000000 15.000000
    endloop
  endfacet
  facet normal 0.000000 -0.000000 1.000000
    outer loop
      vertex 7.500000 0.000000 15.000000
      vertex 20.000000 7.216878 15.000000
      vertex -3.750000 20.000000 15.000000
    endloop
  endfacet
  facet normal 0.000000 -0.000000 1.000000
    outer loop
      vertex 20.000000 20.000000 15.000000
      vertex -3.750000 20.000000 15.000000
      vertex 20.000000 7.216878 15.000000
    endloop
  endfacet
  facet normal -0.500000 0.866025 0.000000
    outer loop
      vertex 7.500000 0.000000 0.000000
      vertex -3.750000 -6.495191 15.000000
      vertex 7.500000 0.000000 15.000000
    endloop
  endfacet
  facet normal -0.500000 0.866025 0.000000
    outer loop
      vertex -3.750000 -6.495191 0.000000
      vertex -3.750000 -6.495191 15.000000
      vertex 7.500000 0.000000 0.000000
    endloop
  endfacet
  facet normal 1.000000 0.000000 -0.000000
    outer loop
      vertex -3.750000 -6.495191 0.000000
      vertex -3.750000 6.495191 15.000000
      vertex -3.750000 -6.495191 15.000000
    endloop
  endfacet
  facet normal 1.000000 0.000000 -0.000000
    outer loop
      vertex -3.750000 6.495191 0.000000
      vertex -3.750000 6.495191 15.000000
      vertex -3.750000 -6.495191 0.000000
    endloop
  endfacet
  facet normal -0.500000 -0.866025 0.000000
    outer loop
      vertex -3.750000 6.495191 0.000000
      vertex 7.500000 0.000000 15.000000
      vertex -3.750000 6.495191 15.000000
    endloop
  endfacet
  facet normal -0.500000 -0.866025 0.000000
    outer loop
      vertex 7.500000 0.000000 0.000000
      vertex 7.500000 0.000000 15.000000
      vertex -3.750000 6.495191 0.000000
    endloop
  endfacet
  facet normal 0.000000 -1.000000 0.000000
    outer loop
      vertex 20.000000 -20.000000 15.000000
      vertex -20.000000 -20.000000 0.000000
      vertex 20.000000 -20.000000 0.000000
    endloop
  endfacet
  facet normal 0.000000 -1.000000 0.000000
    outer loop
      vertex -20.000000 -20.000000 15.000000
      vertex -20.000000 -20.000000 0.000000
      vertex 20.000000 -20.000000 15.000000
    endloop
  endfacet
  facet normal 0.000000 1.000000 -0.000000
    outer loop
      vertex 20.000000 20.000000 15.000000
      vertex -20.000000 20.000000 0.000000
      vertex -20.000000 20.000000 15.000000
    endloop
  endfacet
  facet normal 0.000000 1.000000 -0.000000
    outer loop
      vertex 20.000000 20.000000 0.000000
      vertex -20.000000 20.000000 0.000000
      vertex 20.000000 20.000000 15.000000
    endloop
  endfacet
  facet normal -1.000000 0.000000 0.000000
    outer loop
      vertex -20.000000 20.000000 15.000000
      vertex -20.000000 -20.000000 0.000000
      vertex -20.000000 -20.000000 15.000000
    endloop
  endfacet
  facet normal -1.000000 0.000000 0.000000
    outer loop
      vertex -20.000000 20.000000 0.000000
      vertex -20.000000 -20.000000 0.000000
      vertex -20.000000 20.000000 15.000000
    endloop
  endfacet
  facet normal 1.000000 -0.000000 0.000000
    outer loop
      vertex 20.000000 20.000000 15.000000
      vertex 20.000000 -20.000000 0.000000
      vertex 20.000000 20.000000 0.000000
    endloop
  endfacet
  facet normal 1.000000 -0.000000 0.000000
    outer loop
      vertex 20.000000 -20.000000 15.000000
      vertex 20.000000 -20.000000 0.000000
      vertex 20.000000 20.000000 15.000000
    endloop
  endfacet
endsolid box-with-tri-hole
