solid box-with-hole_segments-7_vertices-94
  facet normal 0.000000 0.000000 -1.000000
    outer loop
      vertex -2.131492 -20.000000 0.000000
      vertex 4.676174 -5.863736 0.000000
      vertex 20.000000 -20.000000 0.000000
    endloop
  endfacet
  facet normal 0.000000 0.000000 -1.000000
    outer loop
      vertex 4.676174 -5.863736 0.000000
      vertex 7.500000 0.000000 0.000000
      vertex 20.000000 -20.000000 0.000000
    endloop
  endfacet
  facet normal -0.000000 0.000000 -1.000000
    outer loop
      vertex 20.000000 20.000000 0.000000
      vertex 9.764533 4.702351 0.000000
      vertex 17.131492 20.000000 0.000000
    endloop
  endfacet
  facet normal 0.000000 0.000000 -1.000000
    outer loop
      vertex 7.500000 0.000000 0.000000
      vertex 9.764533 4.702351 0.000000
      vertex 20.000000 -20.000000 0.000000
    endloop
  endfacet
  facet normal 0.000000 -0.000000 -1.000000
    outer loop
      vertex 20.000000 20.000000 0.000000
      vertex 20.000000 -20.000000 0.000000
      vertex 9.764533 4.702351 0.000000
    endloop
  endfacet
  facet normal 0.000000 0.000000 -1.000000
    outer loop
      vertex 4.676174 -5.863736 0.000000
      vertex -2.131492 -20.000000 0.000000
      vertex -1.668907 -7.311959 0.000000
    endloop
  endfacet
  facet normal 0.000000 0.000000 -1.000000
    outer loop
      vertex -20.000000 -20.000000 0.000000
      vertex -20.000000 -11.495912 0.000000
      vertex -2.131492 -20.000000 0.000000
    endloop
  endfacet
  facet normal 0.000000 0.000000 -1.000000
    outer loop
      vertex -20.000000 -11.495912 0.000000
      vertex -1.668907 -7.311959 0.000000
      vertex -2.131492 -20.000000 0.000000
    endloop
  endfacet
  facet normal 0.000000 -0.000000 -1.000000
    outer loop
      vertex -6.757267 -3.254128 0.000000
      vertex -1.668907 -7.311959 0.000000
      vertex -20.000000 -11.495912 0.000000
    endloop
  endfacet
  facet normal -0.000000 0.000000 -1.000000
    outer loop
      vertex -6.757267 -3.254128 0.000000
      vertex -20.000000 -11.495912 0.000000
      vertex -20.000000 7.306600 0.000000
    endloop
  endfacet
  facet normal 0.000000 0.000000 -1.000000
    outer loop
      vertex -6.757267 -3.254128 0.000000
      vertex -20.000000 7.306600 0.000000
      vertex -6.757267 3.254128 0.000000
    endloop
  endfacet
  facet normal 0.000000 0.000000 -1.000000
    outer loop
      vertex -20.000000 20.000000 0.000000
      vertex -6.757267 20.000000 0.000000
      vertex -20.000000 7.306600 0.000000
    endloop
  endfacet
  facet normal 0.000000 -0.000000 -1.000000
    outer loop
      vertex -6.757267 20.000000 0.000000
      vertex -6.757267 3.254128 0.000000
      vertex -20.000000 7.306600 0.000000
    endloop
  endfacet
  facet normal -0.000000 0.000000 -1.000000
    outer loop
      vertex -1.668907 7.311959 0.000000
      vertex -6.757267 3.254128 0.000000
      vertex -6.757267 20.000000 0.000000
    endloop
  endfacet
  facet normal 0.000000 0.000000 -1.000000
    outer loop
      vertex -1.668907 7.311959 0.000000
      vertex -6.757267 20.000000 0.000000
      vertex 14.241393 20.000000 0.000000
    endloop
  endfacet
  facet normal 0.000000 0.000000 -1.000000
    outer loop
      vertex 14.241393 20.000000 0.000000
      vertex 9.764533 4.702351 0.000000
      vertex 4.676174 5.863736 0.000000
    endloop
  endfacet
  facet normal 0.000000 0.000000 -1.000000
    outer loop
      vertex 4.676174 5.863736 0.000000
      vertex -1.668907 7.311959 0.000000
      vertex 14.241393 20.000000 0.000000
    endloop
  endfacet
  facet normal -0.000000 0.000000 -1.000000
    outer loop
      vertex 17.131492 20.000000 0.000000
      vertex 9.764533 4.702351 0.000000
      vertex 14.241393 20.000000 0.000000
    endloop
  endfacet
  facet normal 0.000000 0.000000 -1.000000
    outer loop
      vertex 4.676174 5.863736 0.000000
      vertex 9.764533 4.702351 0.000000
      vertex 7.500000 0.000000 0.000000
    endloop
  endfacet
  facet normal -0.000000 0.000000 1.000000
    outer loop
      vertex 17.131492 20.000000 5.000000
      vertex 9.764533 4.702351 5.000000
      vertex 20.000000 20.000000 5.000000
    endloop
  endfacet
  facet normal 0.000000 -0.000000 1.000000
    outer loop
      vertex 20.000000 -20.000000 5.000000
      vertex 20.000000 20.000000 5.000000
      vertex 9.764533 4.702351 5.000000
    endloop
  endfacet
  facet normal -0.000000 0.000000 1.000000
    outer loop
      vertex 4.676174 -5.863736 5.000000
      vertex 20.000000 -20.000000 5.000000
      vertex 7.500000 0.000000 5.000000
    endloop
  endfacet
  facet normal 0.000000 0.000000 1.000000
    outer loop
      vertex 9.764533 4.702351 5.000000
      vertex 7.500000 0.000000 5.000000
      vertex 20.000000 -20.000000 5.000000
    endloop
  endfacet
  facet normal 0.000000 0.000000 1.000000
    outer loop
      vertex 4.676174 -5.863736 5.000000
      vertex -2.131492 -20.000000 5.000000
      vertex 20.000000 -20.000000 5.000000
    endloop
  endfacet
  facet normal 0.000000 0.000000 1.000000
    outer loop
      vertex -2.131492 -20.000000 5.000000
      vertex -20.000000 -11.495912 5.000000
      vertex -20.000000 -20.000000 5.000000
    endloop
  endfacet
  facet normal -0.000000 0.000000 1.000000
    outer loop
      vertex -20.000000 -11.495912 5.000000
      vertex -2.131492 -20.000000 5.000000
      vertex -1.668907 -7.311959 5.000000
    endloop
  endfacet
  facet normal 0.000000 0.000000 1.000000
    outer loop
      vertex 4.676174 -5.863736 5.000000
      vertex -1.668907 -7.311959 5.000000
      vertex -2.131492 -20.000000 5.000000
    endloop
  endfacet
  facet normal 0.000000 0.000000 1.000000
    outer loop
      vertex -20.000000 7.306600 5.000000
      vertex -20.000000 -11.495912 5.000000
      vertex -6.757267 -3.254128 5.000000
    endloop
  endfacet
  facet normal 0.000000 0.000000 1.000000
    outer loop
      vertex -1.668907 -7.311959 5.000000
      vertex -6.757267 -3.254128 5.000000
      vertex -20.000000 -11.495912 5.000000
    endloop
  endfacet
  facet normal 0.000000 0.000000 1.000000
    outer loop
      vertex -6.757267 3.254128 5.000000
      vertex -20.000000 7.306600 5.000000
      vertex -6.757267 -3.254128 5.000000
    endloop
  endfacet
  facet normal 0.000000 0.000000 1.000000
    outer loop
      vertex -6.757267 20.000000 5.000000
      vertex -20.000000 7.306600 5.000000
      vertex -6.757267 3.254128 5.000000
    endloop
  endfacet
  facet normal -0.000000 0.000000 1.000000
    outer loop
      vertex -20.000000 20.000000 5.000000
      vertex -20.000000 7.306600 5.000000
      vertex -6.757267 20.000000 5.000000
    endloop
  endfacet
  facet normal 0.000000 0.000000 1.000000
    outer loop
      vertex -6.757267 20.000000 5.000000
      vertex -6.757267 3.254128 5.000000
      vertex -1.668907 7.311959 5.000000
    endloop
  endfacet
  facet normal 0.000000 -0.000000 1.000000
    outer loop
      vertex -1.668907 7.311959 5.000000
      vertex 14.241393 20.000000 5.000000
      vertex -6.757267 20.000000 5.000000
    endloop
  endfacet
  facet normal -0.000000 0.000000 1.000000
    outer loop
      vertex -1.668907 7.311959 5.000000
      vertex 4.676174 5.863736 5.000000
      vertex 14.241393 20.000000 5.000000
    endloop
  endfacet
  facet normal -0.000000 0.000000 1.000000
    outer loop
      vertex 4.676174 5.863736 5.000000
      vertex 9.764533 4.702351 5.000000
      vertex 14.241393 20.000000 5.000000
    endloop
  endfacet
  facet normal 0.000000 0.000000 1.000000
    outer loop
      vertex 17.131492 20.000000 5.000000
      vertex 14.241393 20.000000 5.000000
      vertex 9.764533 4.702351 5.000000
    endloop
  endfacet
  facet normal 0.000000 0.000000 1.000000
    outer loop
      vertex 4.676174 5.863736 5.000000
      vertex 7.500000 -0.000000 5.000000
      vertex 9.764533 4.702351 5.000000
    endloop
  endfacet
  facet normal -0.900969 0.433884 0.000000
    outer loop
      vertex 7.500000 0.000000 0.000000
      vertex 4.676174 -5.863736 5.000000
      vertex 7.500000 0.000000 5.000000
    endloop
  endfacet
  facet normal -0.900969 0.433884 0.000000
    outer loop
      vertex 4.676174 -5.863736 0.000000
      vertex 4.676174 -5.863736 5.000000
      vertex 7.500000 0.000000 0.000000
    endloop
  endfacet
  facet normal -0.222521 0.974928 0.000000
    outer loop
      vertex 4.676174 -5.863736 0.000000
      vertex -1.668907 -7.311959 5.000000
      vertex 4.676174 -5.863736 5.000000
    endloop
  endfacet
  facet normal -0.222521 0.974928 0.000000
    outer loop
      vertex -1.668907 -7.311959 0.000000
      vertex -1.668907 -7.311959 5.000000
      vertex 4.676174 -5.863736 0.000000
    endloop
  endfacet
  facet normal 0.623490 0.781831 -0.000000
    outer loop
      vertex -1.668907 -7.311959 0.000000
      vertex -6.757267 -3.254128 5.000000
      vertex -1.668907 -7.311959 5.000000
    endloop
  endfacet
  facet normal 0.623490 0.781831 -0.000000
    outer loop
      vertex -6.757267 -3.254128 0.000000
      vertex -6.757267 -3.254128 5.000000
      vertex -1.668907 -7.311959 0.000000
    endloop
  endfacet
  facet normal 1.000000 0.000000 -0.000000
    outer loop
      vertex -6.757267 -3.254128 0.000000
      vertex -6.757267 3.254128 5.000000
      vertex -6.757267 -3.254128 5.000000
    endloop
  endfacet
  facet normal 1.000000 0.000000 -0.000000
    outer loop
      vertex -6.757267 3.254128 0.000000
      vertex -6.757267 3.254128 5.000000
      vertex -6.757267 -3.254128 0.000000
    endloop
  endfacet
  facet normal 0.623490 -0.781831 0.000000
    outer loop
      vertex -6.757267 3.254128 0.000000
      vertex -1.668907 7.311959 5.000000
      vertex -6.757267 3.254128 5.000000
    endloop
  endfacet
  facet normal 0.623490 -0.781831 0.000000
    outer loop
      vertex -1.668907 7.311959 0.000000
      vertex -1.668907 7.311959 5.000000
      vertex -6.757267 3.254128 0.000000
    endloop
  endfacet
  facet normal -0.222521 -0.974928 0.000000
    outer loop
      vertex -1.668907 7.311959 0.000000
      vertex 4.676174 5.863736 5.000000
      vertex -1.668907 7.311959 5.000000
    endloop
  endfacet
  facet normal -0.222521 -0.974928 0.000000
    outer loop
      vertex 4.676174 5.863736 0.000000
      vertex 4.676174 5.863736 5.000000
      vertex -1.668907 7.311959 0.000000
    endloop
  endfacet
  facet normal -0.900969 -0.433884 0.000000
    outer loop
      vertex 4.676174 5.863736 0.000000
      vertex 7.500000 0.000000 5.000000
      vertex 4.676174 5.863736 5.000000
    endloop
  endfacet
  facet normal -0.900969 -0.433884 0.000000
    outer loop
      vertex 7.500000 0.000000 0.000000
      vertex 7.500000 0.000000 5.000000
      vertex 4.676174 5.863736 0.000000
    endloop
  endfacet
  facet normal 0.000000 -1.000000 0.000000
    outer loop
      vertex -20.000000 -20.000000 0.000000
      vertex -2.131492 -20.000000 0.000000
      vertex -2.131492 -20.000000 5.000000
    endloop
  endfacet
  facet normal 0.000000 -1.000000 0.000000
    outer loop
      vertex -2.131492 -20.000000 0.000000
      vertex 20.000000 -20.000000 0.000000
      vertex 20.000000 -20.000000 5.000000
    endloop
  endfacet
  facet normal -0.000000 -1.000000 0.000000
    outer loop
      vertex 20.000000 -20.000000 5.000000
      vertex -2.131492 -20.000000 5.000000
      vertex -2.131492 -20.000000 0.000000
    endloop
  endfacet
  facet normal 0.000000 -1.000000 0.000000
    outer loop
      vertex -20.000000 -20.000000 5.000000
      vertex -20.000000 -20.000000 0.000000
      vertex -2.131492 -20.000000 5.000000
    endloop
  endfacet
  facet normal 0.000000 1.000000 0.000000
    outer loop
      vertex -20.000000 20.000000 0.000000
      vertex -20.000000 20.000000 5.000000
      vertex -6.757267 20.000000 0.000000
    endloop
  endfacet
  facet normal 0.000000 1.000000 0.000000
    outer loop
      vertex 20.000000 20.000000 0.000000
      vertex 17.131492 20.000000 0.000000
      vertex 17.131492 20.000000 5.000000
    endloop
  endfacet
  facet normal -0.000000 1.000000 0.000000
    outer loop
      vertex -6.757267 20.000000 5.000000
      vertex 14.241393 20.000000 5.000000
      vertex -6.757267 20.000000 0.000000
    endloop
  endfacet
  facet normal -0.000000 1.000000 0.000000
    outer loop
      vertex 14.241393 20.000000 5.000000
      vertex 17.131492 20.000000 5.000000
      vertex 17.131492 20.000000 0.000000
    endloop
  endfacet
  facet normal 0.000000 1.000000 0.000000
    outer loop
      vertex 20.000000 20.000000 5.000000
      vertex 20.000000 20.000000 0.000000
      vertex 17.131492 20.000000 5.000000
    endloop
  endfacet
  facet normal 0.000000 1.000000 0.000000
    outer loop
      vertex 17.131492 20.000000 0.000000
      vertex 14.241393 20.000000 0.000000
      vertex 14.241393 20.000000 5.000000
    endloop
  endfacet
  facet normal 0.000000 1.000000 0.000000
    outer loop
      vertex 14.241393 20.000000 0.000000
      vertex -6.757267 20.000000 0.000000
      vertex 14.241393 20.000000 5.000000
    endloop
  endfacet
  facet normal 0.000000 1.000000 0.000000
    outer loop
      vertex -6.757267 20.000000 5.000000
      vertex -6.757267 20.000000 0.000000
      vertex -20.000000 20.000000 5.000000
    endloop
  endfacet
  facet normal -1.000000 -0.000000 0.000000
    outer loop
      vertex -20.000000 -11.495912 5.000000
      vertex -20.000000 -20.000000 0.000000
      vertex -20.000000 -20.000000 5.000000
    endloop
  endfacet
  facet normal -1.000000 0.000000 0.000000
    outer loop
      vertex -20.000000 7.306600 0.000000
      vertex -20.000000 -11.495912 0.000000
      vertex -20.000000 7.306600 5.000000
    endloop
  endfacet
  facet normal -1.000000 0.000000 0.000000
    outer loop
      vertex -20.000000 20.000000 0.000000
      vertex -20.000000 7.306600 0.000000
      vertex -20.000000 20.000000 5.000000
    endloop
  endfacet
  facet normal -1.000000 0.000000 0.000000
    outer loop
      vertex -20.000000 7.306600 5.000000
      vertex -20.000000 20.000000 5.000000
      vertex -20.000000 7.306600 0.000000
    endloop
  endfacet
  facet normal -1.000000 0.000000 0.000000
    outer loop
      vertex -20.000000 -11.495912 5.000000
      vertex -20.000000 7.306600 5.000000
      vertex -20.000000 -11.495912 0.000000
    endloop
  endfacet
  facet normal -1.000000 0.000000 -0.000000
    outer loop
      vertex -20.000000 -11.495912 5.000000
      vertex -20.000000 -11.495912 0.000000
      vertex -20.000000 -20.000000 0.000000
    endloop
  endfacet
  facet normal 1.000000 0.000000 0.000000
    outer loop
      vertex 20.000000 20.000000 5.000000
      vertex 20.000000 -20.000000 0.000000
      vertex 20.000000 20.000000 0.000000
    endloop
  endfacet
  facet normal 1.000000 -0.000000 0.000000
    outer loop
      vertex 20.000000 -20.000000 5.000000
      vertex 20.000000 -20.000000 0.000000
      vertex 20.000000 20.000000 5.000000
    endloop
  endfacet
endsolid box-with-hole_segments-7_vertices-94
